<svg xmlns="http://www.w3.org/2000/svg" id="Ebene_3" data-name="Ebene 3" viewBox="0 0 525.73 552.28"><defs><style>.cls-1,.cls-3,.cls-4,.cls-5,.cls-6{fill:none}.cls-1{stroke:#e25641;stroke-width:15px}.cls-1,.cls-4,.cls-5{stroke-miterlimit:10}.cls-2{fill:#95caef}.cls-3,.cls-4,.cls-5,.cls-6{stroke:#95caef}.cls-3,.cls-5,.cls-6{stroke-linecap:square}.cls-3{stroke-linejoin:bevel}.cls-3,.cls-4{stroke-width:20px}.cls-5,.cls-6{stroke-width:2px}.cls-6{stroke-linejoin:round}.cls-7{fill:#e25641}.cls-8{fill:#fff}</style></defs><title>Emberfest_startseite_Amsterdam_windmuehle_final</title><line x1="163.99" x2="224.02" y1="265" y2="247.6" class="cls-1"/><line x1="371.69" x2="311.66" y1="265.07" y2="246.06" class="cls-1"/><path d="M335.64,283.36h14.18s-47-91-81.46-91-81.47,91-81.47,91H199.8c-10.27,59.08-37.9,157.46-37.9,157.46l32.51,5.63v32l35,13.35,38.36-.1,38.21.1,35-13.35v-32l32.5-5.63S345.92,342.44,335.64,283.36Z" class="cls-2"/><line x1="83.39" x2="451.04" y1="79.61" y2="447.19" class="cls-3"/><line x1="451.04" x2="83.39" y1="79.61" y2="447.19" class="cls-4"/><line x1="242.74" x2="211.31" y1="160.61" y2="192.03" class="cls-5"/><line x1="231.24" x2="199.81" y1="149.1" y2="180.52" class="cls-5"/><line x1="219.73" x2="188.31" y1="137.6" y2="169.02" class="cls-5"/><line x1="208.23" x2="176.8" y1="126.1" y2="157.52" class="cls-5"/><line x1="196.72" x2="165.3" y1="114.6" y2="146.02" class="cls-5"/><line x1="185.22" x2="153.79" y1="103.1" y2="134.52" class="cls-5"/><line x1="173.72" x2="142.29" y1="91.6" y2="123.01" class="cls-5"/><line x1="162.21" x2="130.79" y1="80.09" y2="111.51" class="cls-5"/><line x1="150.71" x2="119.28" y1="68.59" y2="100.01" class="cls-5"/><line x1="139.2" x2="107.78" y1="57.09" y2="88.51" class="cls-5"/><line x1="127.7" x2="96.27" y1="45.59" y2="77.01" class="cls-5"/><line x1="116.19" x2="84.77" y1="34.09" y2="65.51" class="cls-5"/><line x1="242.74" x2="116.19" y1="160.61" y2="34.09" class="cls-5"/><line x1="232.27" x2="105.72" y1="171.08" y2="44.56" class="cls-5"/><line x1="221.79" x2="95.24" y1="181.55" y2="55.03" class="cls-5"/><line x1="211.31" x2="84.77" y1="192.03" y2="65.51" class="cls-5"/><line x1="331.52" x2="362.95" y1="214.58" y2="246" class="cls-6"/><line x1="343.03" x2="374.45" y1="203.08" y2="234.5" class="cls-6"/><line x1="354.53" x2="385.96" y1="191.58" y2="223" class="cls-6"/><line x1="366.03" x2="397.46" y1="180.08" y2="211.5" class="cls-6"/><line x1="377.54" x2="408.96" y1="168.57" y2="199.99" class="cls-6"/><line x1="389.04" x2="420.47" y1="157.07" y2="188.49" class="cls-6"/><line x1="400.55" x2="431.97" y1="145.57" y2="176.99" class="cls-6"/><line x1="412.05" x2="443.48" y1="134.07" y2="165.49" class="cls-6"/><line x1="423.56" x2="454.98" y1="122.57" y2="153.99" class="cls-6"/><line x1="435.06" x2="466.49" y1="111.07" y2="142.49" class="cls-6"/><line x1="446.56" x2="477.99" y1="99.56" y2="130.98" class="cls-6"/><line x1="458.07" x2="489.49" y1="88.06" y2="119.48" class="cls-6"/><line x1="331.52" x2="458.07" y1="214.58" y2="88.06" class="cls-6"/><line x1="342" x2="468.54" y1="225.05" y2="98.54" class="cls-6"/><line x1="352.47" x2="479.02" y1="235.53" y2="109.01" class="cls-6"/><line x1="362.95" x2="489.49" y1="246" y2="119.48" class="cls-6"/><line x1="449.67" x2="418.24" y1="461.27" y2="492.68" class="cls-6"/><line x1="438.17" x2="406.74" y1="449.76" y2="481.18" class="cls-6"/><line x1="426.66" x2="395.24" y1="438.26" y2="469.68" class="cls-6"/><line x1="415.16" x2="383.73" y1="426.76" y2="458.18" class="cls-6"/><line x1="403.65" x2="372.23" y1="415.26" y2="446.68" class="cls-6"/><line x1="392.15" x2="360.72" y1="403.76" y2="435.18" class="cls-6"/><line x1="380.65" x2="349.22" y1="392.26" y2="423.67" class="cls-6"/><line x1="369.14" x2="337.72" y1="380.75" y2="412.17" class="cls-6"/><line x1="357.64" x2="326.21" y1="369.25" y2="400.67" class="cls-6"/><line x1="346.13" x2="314.71" y1="357.75" y2="389.17" class="cls-6"/><line x1="334.63" x2="303.2" y1="346.25" y2="377.67" class="cls-6"/><line x1="323.12" x2="291.7" y1="334.75" y2="366.17" class="cls-6"/><line x1="449.67" x2="323.12" y1="461.27" y2="334.75" class="cls-6"/><line x1="439.2" x2="312.65" y1="471.74" y2="345.22" class="cls-6"/><line x1="428.72" x2="302.17" y1="482.21" y2="355.69" class="cls-6"/><line x1="418.24" x2="291.7" y1="492.68" y2="366.17" class="cls-6"/><line x1="44.89" x2="76.32" y1="407.3" y2="438.72" class="cls-6"/><line x1="56.4" x2="87.82" y1="395.79" y2="427.21" class="cls-6"/><line x1="67.9" x2="99.33" y1="384.29" y2="415.71" class="cls-6"/><line x1="79.41" x2="110.83" y1="372.79" y2="404.21" class="cls-6"/><line x1="90.91" x2="122.34" y1="361.29" y2="392.71" class="cls-6"/><line x1="102.41" x2="133.84" y1="349.79" y2="381.21" class="cls-6"/><line x1="113.92" x2="145.34" y1="338.29" y2="369.71" class="cls-6"/><line x1="125.42" x2="156.85" y1="326.78" y2="358.2" class="cls-6"/><line x1="136.93" x2="168.35" y1="315.28" y2="346.7" class="cls-6"/><line x1="148.43" x2="179.86" y1="303.78" y2="335.2" class="cls-6"/><line x1="159.93" x2="191.36" y1="292.28" y2="323.7" class="cls-6"/><line x1="171.44" x2="202.86" y1="280.78" y2="312.2" class="cls-6"/><line x1="44.89" x2="171.44" y1="407.3" y2="280.78" class="cls-6"/><line x1="55.37" x2="181.91" y1="417.77" y2="291.25" class="cls-6"/><line x1="65.84" x2="192.39" y1="428.24" y2="301.72" class="cls-6"/><line x1="76.32" x2="202.86" y1="438.72" y2="312.2" class="cls-6"/><path d="M369.38,256.49c-9.28-1.42-18.62-2.48-27.93-3.69-46.39-5-65.78,6.1-73.62,6.1v0c-7.84,0-27.23-11.11-73.62-6.1-9.31,1.21-18.65,2.27-27.93,3.69-9.81,1.5-13.24,9.83-6.53,17.86,3.29,3.95,3.63,7.6,4.18,12.06,6.54,52.89,47.3,50.27,68.64,38,13.94-8.76,22.47-21.39,26.88-37.12,1.29-4.59,2.55-10.27,8.38-10.68,5.83.41,7.09,6.09,8.38,10.68,4.41,15.73,12.94,28.36,26.88,37.12,21.34,12.24,62.1,14.86,68.64-38,.55-4.46.89-8.11,4.18-12.06C382.62,266.32,379.19,258,369.38,256.49Z" class="cls-7"/><path d="M214.66,264.76c-15.95-.51-33.32-.51-35.55,16.83-1.88,14.58,3.9,29.67,13.62,33.89,17.67,7.67,32.91,3.3,44.13-15.15C247.92,279,241.62,267.58,214.66,264.76Z" class="cls-8"/><path d="M321,264.76c15.95-.51,33.32-.51,35.55,16.83,1.88,14.58-3.9,29.67-13.62,33.89-17.67,7.67-32.91,3.3-44.13-15.15C287.74,279,294,267.58,321,264.76Z" class="cls-8"/></svg>